<svg width="42" height="46" viewBox="0 0 42 46" fill="none" xmlns="http://www.w3.org/2000/svg">
<path d="M26.6839 5.66511C26.6839 6.78533 26.3493 7.88042 25.7223 8.81192C25.0953 9.74343 24.2041 10.4695 23.1614 10.8985C22.1187 11.3274 20.9712 11.4399 19.864 11.2217C18.7569 11.0036 17.7398 10.4646 16.9413 9.6728C16.1427 8.88105 15.5987 7.87211 15.3778 6.77353C15.1569 5.67496 15.2692 4.53607 15.7005 3.50081C16.1317 2.46556 16.8625 1.58043 17.8005 0.957312C18.7385 0.33419 19.8416 0.0010411 20.9704 0C22.4848 -6.47868e-07 23.9373 0.596697 25.0086 1.65896C26.0799 2.72122 26.6825 4.16214 26.6839 5.66511ZM20.9704 34.675C19.8414 34.6761 18.7381 35.0094 17.8 35.6327C16.8618 36.2561 16.131 37.1415 15.7 38.1771C15.2689 39.2127 15.1569 40.3518 15.3782 41.4505C15.5995 42.5493 16.1441 43.5582 16.9431 44.3497C17.7422 45.1413 18.7598 45.6799 19.8673 45.8975C20.9748 46.115 22.1224 46.0018 23.165 45.572C24.2077 45.1423 25.0985 44.4153 25.7249 43.4831C26.3512 42.5509 26.685 41.4553 26.6839 40.3349C26.6839 39.5907 26.5361 38.8539 26.2488 38.1665C25.9615 37.4792 25.5405 36.8548 25.0098 36.3291C24.4791 35.8034 23.8492 35.3867 23.1561 35.1029C22.4629 34.819 21.7202 34.6737 20.9704 34.675ZM39.3364 19.8437C40.294 19.2506 41.053 18.3891 41.5173 17.368C41.9816 16.3469 42.1305 15.2122 41.9451 14.1071C41.7597 13.0021 41.2484 11.9765 40.4757 11.1598C39.7031 10.3431 38.7038 9.77216 37.6042 9.51903C36.5047 9.2659 35.3542 9.34198 34.2982 9.73766C33.2422 10.1333 32.3281 10.8309 31.6714 11.7421C31.0148 12.6532 30.6451 13.7372 30.6091 14.8568C30.5731 15.9765 30.8723 17.0816 31.4691 18.0325C32.2708 19.3075 33.5499 20.2145 35.0251 20.5541C36.5003 20.8937 38.051 20.6381 39.3364 19.8437ZM3.0871 26.567C2.12973 27.1606 1.3712 28.0226 0.907383 29.0439C0.44357 30.0653 0.295333 31.2002 0.481367 32.3052C0.667401 33.4102 1.17937 34.4357 1.95256 35.2519C2.72575 36.0681 3.72542 36.6386 4.82522 36.891C5.92503 37.1435 7.07555 37.0666 8.13136 36.6702C9.18716 36.2738 10.1009 35.5756 10.7569 34.6639C11.4129 33.7522 11.7818 32.6679 11.817 31.5481C11.8521 30.4284 11.552 29.3234 10.9545 28.3729C10.5565 27.7397 10.0366 27.1906 9.42456 26.757C8.8125 26.3235 8.1203 26.014 7.38757 25.8462C6.65484 25.6785 5.89597 25.6558 5.15439 25.7795C4.41282 25.9032 3.70312 26.1708 3.06589 26.567H3.0871ZM38.3869 26.3196C37.3706 25.832 36.2315 25.6545 35.1136 25.8093C33.9957 25.9641 32.9492 26.4444 32.1062 27.1894C31.2633 27.9344 30.6619 28.9107 30.3779 29.9949C30.094 31.0791 30.1403 32.2225 30.511 33.2805C30.8817 34.3386 31.5601 35.2639 32.4606 35.9394C33.361 36.6148 34.443 37.0102 35.5698 37.0755C36.6967 37.1408 37.8177 36.873 38.7912 36.3061C39.7648 35.7393 40.5471 34.8987 41.0394 33.8906C41.3665 33.2195 41.5568 32.491 41.5994 31.7467C41.642 31.0025 41.536 30.2572 41.2876 29.5537C41.0391 28.8502 40.6531 28.2024 40.1517 27.6474C39.6502 27.0924 39.0433 26.6411 38.3656 26.3196H38.3869ZM8.75288 19.8437C9.71024 19.2501 10.4688 18.3881 10.9326 17.3668C11.3964 16.3454 11.5447 15.2104 11.3586 14.1055C11.1726 13.0005 10.6606 11.975 9.88745 11.1588C9.11426 10.3425 8.11455 9.77214 7.01475 9.51969C5.91495 9.26724 4.76442 9.34407 3.70862 9.74049C2.65282 10.1369 1.73916 10.8351 1.08314 11.7468C0.427117 12.6585 0.0582125 13.7428 0.0230367 14.8626C-0.0121391 15.9823 0.288004 17.0873 0.885527 18.0378C1.68894 19.305 2.96433 20.2059 4.43392 20.5441C5.90351 20.8823 7.44825 20.6306 8.73167 19.8437H8.75288Z" fill="white"/>
</svg>
